<?xml version="1.0" encoding="UTF-8" standalone="no"?>
<!-- Created with Inkscape (http://www.inkscape.org/) -->

<svg
   width="72.577362mm"
   height="64.793839mm"
   viewBox="0 0 72.577362 64.793839"
   version="1.1"
   id="svg5"
   xml:space="preserve"
   xmlns="http://www.w3.org/2000/svg"
   xmlns:svg="http://www.w3.org/2000/svg"><defs
     id="defs2" /><g
     id="layer1"
     transform="translate(-59.856374,-149.8054)"><path
       class="st0"
       d="m 69.751786,185.19348 7.6141,-10.6112 c 2.130609,-2.94266 3.938909,-5.37466 8.10386,-5.3035 4.520749,0.0795 6.27045,2.79617 8.54336,6.00673 2.034349,2.8757 4.07287,5.7472 6.107194,8.6229 3.18545,4.47889 7.31274,7.40482 2.24364,12.69995 3.00546,2.07619 5.06491,5.17373 6.26207,9.19634 l 2.66639,8.79453 h -9.38471 v -9.9875 c 0,-0.97531 -0.79952,-1.7748 -1.77483,-1.7748 H 71.015915 c -0.97531,0 -1.77481,0.79949 -1.77481,1.7748 v 9.9875 h -9.38473 c 2.14735,-8.09548 4.53748,-15.61748 9.06242,-18.12063 -1.47762,-1.05067 -2.2855,-2.21851 -2.54082,-3.48266 -0.57766,-2.90918 1.78736,-5.58813 3.373811,-7.80246 z m 14.93938,13.13945 h 1.82506 l -0.37674,1.10926 c 2.13898,-0.1465 4.19843,-1.60737 5.29513,-4.43284 1.15949,-2.98872 2.41526,-1.46505 2.30223,-6.56345 l -0.0837,-3.83845 c 0.0837,-2.15991 -0.83298,-3.198 -2.73757,-3.12266 -3.56636,2.08457 -7.13692,1.70783 -10.70328,0 -1.46506,-0.37255 -2.33154,0.62369 -2.73756,2.67478 0,2.39013 -0.36836,6.22858 0.68648,8.32989 0.54835,1.09251 1.17205,1.41482 1.83761,2.80034 1.1846,2.4613 3.1059,3.84264 5.08165,4.11052 z m 0.10046,-5.46675 c -1.72876,0.30557 -1.34366,1.59064 -3.93054,-0.046 h -0.45207 c 0.39348,0.5609 0.90415,1.5446 1.56134,1.77063 1.66597,0.56927 2.59105,0.0837 3.52032,-1.07577 0.92926,1.15949 1.85016,1.64504 3.52032,1.07577 0.65718,-0.22185 1.16786,-1.20553 1.56133,-1.77063 h -0.45207 c -2.64548,1.67436 -2.18504,0.29301 -4.05193,0.0293 -0.42278,-0.0628 -0.85392,-0.0585 -1.2767,0.0168 z m 0.17582,-3.71706 c -1.49437,-0.19255 -2.99292,-0.15488 -4.48727,0 1.57388,-1.25576 3.79659,-1.92549 4.48727,0 z m 1.2139,0 c 1.49435,-0.25952 2.992899,-0.21766 4.487249,0 -1.57388,-1.25576 -3.79658,-1.92549 -4.487249,0 z m -2.41526,-3.95984 c 0.44371,0.3893 0.82043,0.85392 1.1595,1.36042 -1.31019,-0.7995 -2.62874,-1.44412 -3.99333,-1.50272 0.22185,-0.29302 0.46881,-0.48557 0.74089,-0.58603 0.77858,-0.27626 1.53204,0.23859 2.09294,0.72833 z m 3.6166,0 c -0.44369,0.3893 -0.82043,0.85392 -1.15948,1.36042 1.31017,-0.7995 2.62872,-1.44412 3.99332,-1.50272 -0.22186,-0.29302 -0.46882,-0.48557 -0.7409,-0.58603 -0.77856,-0.27626 -1.53202,0.23859 -2.09294,0.72833 z"
       id="path184"
       style="stroke-width:0.418587" /><g
       style="fill:none;stroke:#000000"
       id="g208"
       transform="matrix(0.08460292,0,0,0.08460292,97.070198,149.63619)"><path
         stroke-width="26"
         d="m 209,15 a 195,195 0 1 0 2,0 z"
         id="path196" /><path
         stroke-width="18"
         d="M 210,15 V 405 M 405,210 H 15 M 59,90 a 260,260 0 0 0 302,0 m 0,240 A 260,260 0 0 0 59,330 M 195,20 a 250,250 0 0 0 0,382 m 30,0 a 250,250 0 0 0 0,-382"
         id="path198" /></g></g><style
     type="text/css"
     id="style182">.st0{fill-rule:evenodd;clip-rule:evenodd;}</style></svg>
