<?xml version="1.0" encoding="UTF-8" standalone="no"?>
<!-- Created with Inkscape (http://www.inkscape.org/) -->

<svg
   width="210mm"
   height="297mm"
   viewBox="0 0 210 297"
   version="1.1"
   id="svg5"
   xml:space="preserve"
   inkscape:export-filename="hacker3.png"
   inkscape:export-xdpi="96"
   inkscape:export-ydpi="96"
   inkscape:version="1.2.2 (1:1.2.2+202212051550+b0a8486541)"
   sodipodi:docname="hacker3.svg"
   xmlns:inkscape="http://www.inkscape.org/namespaces/inkscape"
   xmlns:sodipodi="http://sodipodi.sourceforge.net/DTD/sodipodi-0.dtd"
   xmlns="http://www.w3.org/2000/svg"
   xmlns:svg="http://www.w3.org/2000/svg"><sodipodi:namedview
     id="namedview7"
     pagecolor="#ffffff"
     bordercolor="#666666"
     borderopacity="1.0"
     inkscape:showpageshadow="2"
     inkscape:pageopacity="0.0"
     inkscape:pagecheckerboard="0"
     inkscape:deskcolor="#d1d1d1"
     inkscape:document-units="mm"
     showgrid="false"
     inkscape:zoom="0.79731341"
     inkscape:cx="268.40135"
     inkscape:cy="492.27819"
     inkscape:window-width="1900"
     inkscape:window-height="1010"
     inkscape:window-x="1930"
     inkscape:window-y="34"
     inkscape:window-maximized="1"
     inkscape:current-layer="layer1" /><defs
     id="defs2" /><g
     inkscape:label="Layer 1"
     inkscape:groupmode="layer"
     id="layer1"><path
       class="st0"
       d="m 123.32624,110.27275 4.43568,-6.18166 c 1.24121,-1.71428 2.29464,-3.13107 4.72097,-3.08961 2.63361,0.0463 3.65291,1.62894 4.97703,3.49928 1.18513,1.67527 2.37269,3.3481 3.55782,5.02336 1.85571,2.60923 4.2601,4.31376 1.30705,7.39849 1.75085,1.20951 2.9506,3.01403 3.64803,5.35745 l 1.55334,5.12335 h -5.46718 v -5.81833 c 0,-0.56818 -0.46575,-1.03393 -1.03392,-1.03393 h -16.96239 c -0.56818,0 -1.03393,0.46575 -1.03393,1.03393 v 5.81833 h -5.46718 c 1.25096,-4.71611 2.64336,-9.09815 5.27941,-10.55639 -0.8608,-0.61207 -1.33144,-1.29243 -1.48018,-2.02886 -0.33652,-1.69476 1.04124,-3.25543 1.96545,-4.54541 z m 8.7031,7.65454 h 1.06318 l -0.21945,0.64622 c 1.24608,-0.0854 2.44583,-0.93641 3.08473,-2.58241 0.67546,-1.74112 1.40702,-0.85348 1.34118,-3.82361 l -0.0488,-2.23614 c 0.0488,-1.25827 -0.48527,-1.86302 -1.59479,-1.81913 -2.07763,1.21439 -4.15769,0.99492 -6.23531,0 -0.85349,-0.21703 -1.35827,0.36334 -1.5948,1.55822 0,1.3924 -0.21459,3.62852 0.39992,4.85267 0.31945,0.63645 0.68279,0.82421 1.07052,1.63137 0.6901,1.43385 1.80937,2.23857 2.96036,2.39464 z m 0.0585,-3.18472 c -1.0071,0.17801 -0.78275,0.92664 -2.28977,-0.0268 h -0.26336 c 0.22923,0.32676 0.52672,0.89981 0.90958,1.03149 0.97052,0.33164 1.50944,0.0488 2.05078,-0.6267 0.54136,0.67549 1.07784,0.95834 2.05081,0.6267 0.38284,-0.12923 0.68035,-0.70229 0.90957,-1.03149 h -0.26337 c -1.54113,0.97541 -1.2729,0.1707 -2.36048,0.017 -0.2463,-0.0366 -0.49746,-0.0341 -0.74376,0.01 z m 0.10242,-2.16541 c -0.87054,-0.11217 -1.74354,-0.0902 -2.61409,0 0.91688,-0.73156 2.21174,-1.12172 2.61409,0 z m 0.70717,0 c 0.87056,-0.15119 1.74355,-0.1268 2.61411,0 -0.91689,-0.73156 -2.21175,-1.12172 -2.61411,0 z m -1.40702,-2.30685 c 0.25849,0.2268 0.47795,0.49746 0.67547,0.79253 -0.76325,-0.46577 -1.53139,-0.84129 -2.32635,-0.87545 0.12924,-0.17068 0.27311,-0.28285 0.43162,-0.34137 0.45356,-0.16095 0.8925,0.13899 1.21926,0.42429 z m 2.10688,0 c -0.25848,0.2268 -0.47794,0.49746 -0.67547,0.79253 0.76326,-0.46577 1.5314,-0.84129 2.32635,-0.87545 -0.12923,-0.17068 -0.27311,-0.28285 -0.43161,-0.34137 -0.45357,-0.16095 -0.8925,0.13899 -1.21927,0.42429 z"
       id="path184"
       style="stroke-width:0.243852" /><g
       style="fill:none;stroke:#000000"
       id="g208"
       transform="matrix(0.06441825,0,0,0.06441825,91.472167,126.55798)"><path
         stroke-width="26"
         d="m 209,15 a 195,195 0 1 0 2,0 z"
         id="path196" /><path
         stroke-width="18"
         d="M 210,15 V 405 M 405,210 H 15 M 59,90 a 260,260 0 0 0 302,0 m 0,240 A 260,260 0 0 0 59,330 M 195,20 a 250,250 0 0 0 0,382 m 30,0 a 250,250 0 0 0 0,-382"
         id="path198" /></g><path
       style="fill:none;stroke:#000000;stroke-width:0.465;stroke-linecap:butt;stroke-linejoin:miter;stroke-opacity:1;stroke-dasharray:1.39500001,1.39500001;stroke-dashoffset:0"
       d="M 84.260964,140.07719 H 21.9084"
       id="path444" /><path
       style="fill:none;stroke:#000000;stroke-width:0.465;stroke-linecap:butt;stroke-linejoin:miter;stroke-opacity:1;stroke-dasharray:1.39500001,1.39500001;stroke-dashoffset:0"
       d="M 187.431,140.07719 H 125.07843"
       id="path444-3" /></g><style
     type="text/css"
     id="style182">.st0{fill-rule:evenodd;clip-rule:evenodd;}</style></svg>
